PathFileType	4	(X/Y/Z)	30_2_48_p0_0-600.trc
DataRate	CameraRate	NumFrames	NumMarkers	Units	OrigDataRate	OrigDataStartFrame	OrigNumFrames
52.0	52.0	6	27	m	52.0	150	601
Frame#	Time	RHip			RKnee			RAnkle			RBigToe			RSmallToe			RHeel			LHip			LKnee			LAnkle			LBigToe			LSmallToe			LHeel			Neck			Head			Nose			RShoulder			RElbow			RWrist			RThumb			RIndex			RPinky			LShoulder			LElbow			LWrist			LThumb			LIndex			LPinky			
		X1	Y1	Z1	X2	Y2	Z2	X3	Y3	Z3	X4	Y4	Z4	X5	Y5	Z5	X6	Y6	Z6	X7	Y7	Z7	X8	Y8	Z8	X9	Y9	Z9	X10	Y10	Z10	X11	Y11	Z11	X12	Y12	Z12	X13	Y13	Z13	X14	Y14	Z14	X15	Y15	Z15	X16	Y16	Z16	X17	Y17	Z17	X18	Y18	Z18	X19	Y19	Z19	X20	Y20	Z20	X21	Y21	Z21	X22	Y22	Z22	X23	Y23	Z23	X24	Y24	Z24	X25	Y25	Z25	X26	Y26	Z26	X27	Y27	Z27	
150	2.8846153846153846	0.2413478863588861	0.5477862199328288	1.0004367158176326	0.2701826659029491	0.5392344543721848	1.3915496828957883	0.2850208104374839	0.613941609652191	1.8214849978988439	0.27168664487349475	0.384897383627245	1.8174991196602832	0.3310873140005302	0.4180595744233595	1.815405411750979	0.27782318369585696	0.6508379208140602	1.86468976161024	0.042954327794583524	0.5437279886757393	0.9959376121771764	0.05545489750501407	0.5240480076968311	1.4189728862417803	0.05992874938163086	0.5610474098709674	1.8054834899158436	0.07529990674574888	0.3658253137871173	1.8011093913919398	0.027002717759299653	0.4066827998568716	1.8213372885374555	0.06880116736868852	0.6313818800945877	1.8771098652307203	0.15819769283033422	0.4769714591546336	0.5135493329200642	0.16538507605217792	0.41492934654248637	0.25764842551422773	0.1618197428926994	0.3236229736025353	0.39129221384876006	0.28976464558093085	0.4746726985456571	0.567332502917585	0.37937623358827194	0.5336239993034508	0.8031425965719443	0.2872606198530795	0.3498625550670176	0.9094102260334755	0.21123324537312785	0.26240668565649894	0.9510244203440659	0.22965663306262318	0.28208492070265895	0.9794761451732626	0.26016806441088164	0.32930013674620773	1.0206378707922608	0.010228198580779953	0.46739578398394466	0.5645877566361336	-0.07601809869059688	0.48563238593268665	0.7709381867662874	0.0241734554106581	0.3122305142507256	0.8818358992977049	0.08586963558644531	0.28294805362815584	0.9191719548145854	0.06461941845602057	0.2883865640247011	0.9554913277241921	0.03448709063849484	0.2788086866484896	0.9666477742684366
151	2.9038461538461537	0.23917742968088326	0.5517584614594996	0.9868912940798394	0.27611051308999185	0.5252418617298632	1.3805474579365566	0.2835223785761858	0.6124370438497151	1.8145669342722832	0.27158777032613923	0.38347580952125293	1.8067871810997507	0.33935310810160707	0.43186013344957513	1.8186776798751565	0.2733733860912386	0.6470826330480127	1.8501408366715903	0.042680718958854905	0.5453035228807301	0.9875791909607048	0.05657899575574317	0.524632950814577	1.408542902511792	0.05265384011702756	0.5790439868562368	1.8022460121167099	0.07483697284767082	0.36574412470125917	1.8014820159486034	0.027056130485196103	0.419772054014019	1.8268134537168645	0.06810360882004778	0.6325503100764459	1.8748091551690618	0.15432941877834738	0.47569923088911487	0.5133742249591493	0.16524451323503814	0.4149620959651199	0.25758806243845067	0.15767798566376023	0.3213373984562109	0.38742414826028926	0.2896930411881144	0.47480650924928014	0.567197575104089	0.37547978631314594	0.5318909834952299	0.8033182103334369	0.28698210705032834	0.34888404880658136	0.922242523611329	0.21766617432963262	0.27274857479956266	0.9827177585936038	0.23097321778072052	0.276451383772499	1.0091018555558435	0.26266336692897974	0.32658916328604837	1.0351248789662122	0.010436017902144353	0.46682007655427704	0.5682197259594158	-0.0735044337839096	0.4979728547389034	0.7785879420879207	0.027749031090973642	0.3490674213043524	0.9110301862902623	0.0733534702449131	0.30253513077499034	0.9625102967573721	0.06269350336961325	0.30220959544399706	0.9884683409620728	0.04460174849463332	0.3196161344186456	0.9991176648186277
152	2.923076923076923	0.2380900482970598	0.5542865531653651	0.9860221775485681	0.2716756414020452	0.5398088385692797	1.3871695442337313	0.2836186069151574	0.6126334164596232	1.8143584848320595	0.27146936876129707	0.3835526290402667	1.8066137625127434	0.3384052109463432	0.43109051263913833	1.8138612936321272	0.27308726395535643	0.6466016367156231	1.8492225227861425	0.0376956986197006	0.5426668139768742	0.9902950466986703	0.05489544789635635	0.5260362573977924	1.4025276288283215	0.05291067469888095	0.5778750847124409	1.8054143478507214	0.07000782998070705	0.3802525684698189	1.8111095895288465	0.0305589030326118	0.42019041607240015	1.8299371622165899	0.06061736593222239	0.646344450884267	1.880569750766706	0.1543836476333768	0.47543154012332384	0.5133004891407197	0.1614193152444564	0.4048477049596168	0.2534834422636263	0.16182826529771135	0.323669815788372	0.3910826404915159	0.2895392799106293	0.47539031672277265	0.5669169364924471	0.37249513050221494	0.5473887037162549	0.8162378142899755	0.2841942104193707	0.37263205230502466	0.943967361625801	0.21473518198078254	0.2946251924661535	1.005211735324909	0.23571752031958004	0.28710833741026465	1.0209232128378078	0.2622386580582014	0.3345398098647947	1.0423807701005658	0.0075172638472296065	0.455584803060309	0.5660505459299292	-0.0659046744562644	0.51404082672835	0.7866327481885356	0.02118988777773695	0.37779951866217976	0.9469077983200106	0.07369866285496765	0.3265176602641612	1.0007920917443387	0.06525001849797471	0.32526394084448346	1.0332594122418115	0.049693220001177485	0.32069610767022666	1.0432838938805595
153	2.9423076923076925	0.23774216156465183	0.5511414853451889	0.9808068134392398	0.27237553480303855	0.5404718174812875	1.3920550843591846	0.28335761018816624	0.6140519872255239	1.8106868459711287	0.2714559063587998	0.3835730096698174	1.806679087868099	0.33930032792090437	0.4315121440361345	1.8185583961303753	0.27315524436984234	0.6480912007990584	1.8466701729834867	0.03809091930124866	0.5424576236517515	0.9858197271295569	0.05475520819788587	0.526617087342501	1.402602099355861	0.052116052244771706	0.5808013333675063	1.7983451533541184	0.0698243788836862	0.38035159830684473	1.8114359538488465	0.03003701743127801	0.4213043223058273	1.827529848518533	0.06789492283762989	0.631394710411831	1.861311719775774	0.14982147133503765	0.4879842267696333	0.511789000106319	0.1579703864751512	0.40270203168021035	0.25652083914912954	0.1577376404753303	0.3350957846739096	0.3894083497901207	0.28947058926499364	0.4754317886798571	0.5669477670374806	0.36823471586009693	0.5457277529393911	0.8120020140658433	0.28636586897265515	0.3969787166227617	0.9607005216599226	0.22004270204810386	0.31948490740054225	1.0263078807606612	0.23574567633395388	0.3106318604038047	1.0379971310003986	0.26315111490194726	0.3503198999481265	1.0530650784341022	0.007499468846761944	0.45558613746141124	0.5661506911456572	-0.06033894251131648	0.5018509595317117	0.7876038224609793	0.017124694453283608	0.3882155364469569	0.9672477927679373	0.06793870793589994	0.3363967434542893	1.0232799606033447	0.06592677542395364	0.32169955681827583	1.048042159058863	0.03690151216689292	0.31916669643309653	1.0555939264622602
154	2.9615384615384617	0.23525622776671518	0.5659785944595999	0.9829936717322558	0.26825885752461526	0.5276335743246447	1.3810192767281462	0.2834491094235627	0.6140237673392042	1.8107034213027557	0.2704015043776912	0.38386057923269956	1.811208210967369	0.33933694049162966	0.43136948172957357	1.8184440677974543	0.27289475712519445	0.6481687420963173	1.8470385027025533	0.04278081661396788	0.544075258078392	0.9909006076346097	0.05089464972051611	0.5411627917286362	1.405669520368514	0.052556387341464506	0.5797158241116022	1.8015077044638728	0.06511309268986068	0.39466809340265324	1.820703782702859	0.02933588802360108	0.4194313483805861	1.8232338187909616	0.06805466421530999	0.631668913995105	1.8610403549859469	0.1499028083212225	0.4879622579232057	0.5117313782351616	0.15780962274756852	0.40296432223164463	0.2533351117286713	0.16146408726142694	0.3233088687719242	0.3873121427853325	0.2896179709327278	0.4754319548819285	0.5669693857980439	0.3597107671676048	0.5500191498249755	0.8135017209930697	0.2908096073648392	0.4077791500893878	0.968279479077625	0.22124037746233524	0.3670724064879369	1.052851644001133	0.23635780606238796	0.33636809603860407	1.0521386534957289	0.26743422257993177	0.35263142303116335	1.054331435515178	0.007452190339174092	0.4557135354805008	0.5661963494527786	-0.05585552218417941	0.5051954450836271	0.796141280041412	0.016359646031365162	0.4006523431483	0.9832106611563779	0.06842231374383996	0.33453369804885585	1.0391148076564192	0.05692556616408389	0.33384926528794123	1.057766201344333	0.007523095828494755	0.38372090106536	1.0869941376869872
155	2.980769230769231	0.23447138352768693	0.5641117339821413	0.9862048967458419	0.2634404450616791	0.5250013623820287	1.3845604645769016	0.28355386538989147	0.6141310548729078	1.8106353594183011	0.271356419439362	0.3836139512965912	1.8065843004692939	0.3393634029949683	0.431835361906343	1.8186641051448094	0.27673167942646354	0.6506047732801635	1.848283433549808	0.042387734877746455	0.5450891335913527	0.987087216327804	0.04867948767998256	0.55153681105677	1.412285248712921	0.05201923975907189	0.5809898814622588	1.7982045812481025	0.06478342382501975	0.3946182658080122	1.821019031159159	0.025556418777914397	0.41933837890972664	1.8202789272768873	0.06314070182866671	0.627542266684555	1.8532463192529047	0.1496497158125318	0.4882370046531826	0.5085006523810018	0.16146597099922763	0.41316575450063364	0.2542312463888419	0.1615332297129557	0.32317226761989415	0.38718518466161356	0.2894164371729699	0.47555243354003757	0.5668984944910948	0.34219716689933033	0.5623425693523779	0.809304496252652	0.2863833792514559	0.42245725475326423	0.9659075239737311	0.22521161033169396	0.38016629014260234	1.0542119086073038	0.24471335975581524	0.3491622892730865	1.057047535651042	0.27755958101651934	0.3665837627747721	1.0666680145769178	0.0073533579455509574	0.45547644791825403	0.5662033041898197	-0.055645091255473886	0.5056965481585605	0.7965943647708608	0.010731315902106403	0.41407517730840354	0.9959551254979772	0.06396210194789763	0.34894397765963087	1.0574784243274273	0.04620401854240928	0.36124369090329406	1.0849022778637796	0.0017362897177934057	0.409278516229383	1.1093255391031278
